<?xml version="1.0" encoding="utf-8"?>
<!-- Generated by IcoMoon.io -->
<!DOCTYPE svg PUBLIC "-//W3C//DTD SVG 1.1//EN" "http://www.w3.org/Graphics/SVG/1.1/DTD/svg11.dtd">
<svg version="1.1" width="512" height="512" viewBox="0 0 512 512">
<path d="M256 0c-141.385 0-256 114.615-256 256s114.615 256 256 256 256-114.615 256-256-114.615-256-256-256zM172.741 320.203h-46.267c-2.788 0-4.87-1.247-6.049-3.146-1.219-1.976-1.282-4.533 0-7.080l49.162-86.535c0.052-0.095 0.052-0.158 0-0.263l-31.284-54.019c-1.294-2.569-1.483-5.106-0.263-7.079 1.179-1.909 3.522-2.885 6.31-2.885h46.267c7.1 0 10.579 4.562 12.884 8.654 0 0 31.62 55.025 31.809 55.328-1.873 3.295-49.95 88.11-49.95 88.11-2.366 4.258-5.699 8.915-12.619 8.915zM391.525 106.069l-102.441 180.672c-0.062 0.097-0.062 0.214 0 0.306l65.229 118.875c1.295 2.558 1.326 5.16 0.096 7.132-1.178 1.897-3.354 2.946-6.141 2.946h-46.217c-7.088 0-10.633-4.699-12.924-8.79 0 0-65.576-119.996-65.744-120.307 3.28-5.791 102.958-182.113 102.958-182.113 2.48-4.448 5.477-8.79 12.387-8.79h46.742c2.789 0 4.977 1.049 6.152 2.947 1.22 1.974 1.187 4.573-0.097 7.122z"></path>
</svg>
