<?xml version="1.0" encoding="utf-8"?>
<!-- Generator: Adobe Illustrator 16.0.0, SVG Export Plug-In . SVG Version: 6.00 Build 0)  -->
<!DOCTYPE svg PUBLIC "-//W3C//DTD SVG 1.1//EN" "http://www.w3.org/Graphics/SVG/1.1/DTD/svg11.dtd">
<svg version="1.1" id="Filled_Icons" xmlns="http://www.w3.org/2000/svg" xmlns:xlink="http://www.w3.org/1999/xlink" x="0px"
	 y="0px" width="24px" height="24px" viewBox="0 0 24 24" enable-background="new 0 0 24 24" xml:space="preserve">
<g>
	<path d="M22.708,4.976l-10.394,8.413C12.223,13.463,12.111,13.5,12,13.5s-0.223-0.037-0.315-0.111L1.292,4.976
		C1.111,5.276,1,5.624,1,6v11c0,1.103,0.897,2,2,2h18c1.103,0,2-0.897,2-2V6C23,5.624,22.889,5.276,22.708,4.976z"/>
	<path d="M21.988,4.271C21.695,4.104,21.361,4,21,4H3C2.639,4,2.305,4.104,2.012,4.271L12,12.357L21.988,4.271z"/>
</g>
</svg>
