<?xml version="1.0" encoding="utf-8"?>
<!-- Generator: Adobe Illustrator 16.0.0, SVG Export Plug-In . SVG Version: 6.00 Build 0)  -->
<!DOCTYPE svg PUBLIC "-//W3C//DTD SVG 1.1//EN" "http://www.w3.org/Graphics/SVG/1.1/DTD/svg11.dtd">
<svg version="1.1" id="Filled_Icons" xmlns="http://www.w3.org/2000/svg" xmlns:xlink="http://www.w3.org/1999/xlink" x="0px"
	 y="0px" width="24px" height="24px" viewBox="0 0 24 24" enable-background="new 0 0 24 24" xml:space="preserve">
<g>
	<path d="M6.527,21.5h-5v-13h5V21.5z M4.018,6.5H3.988C2.478,6.5,1.5,5.318,1.5,4.019c0-1.329,1.008-2.412,2.547-2.412
		c1.541,0,2.488,1.118,2.519,2.447C6.565,5.354,5.588,6.5,4.018,6.5z M15.527,12.5c-1.105,0-2,0.896-2,2v7h-5c0,0,0.059-12,0-13h5
		v1.485c0,0,1.548-1.443,3.938-1.443c2.962,0,5.062,2.144,5.062,6.304V21.5h-5v-7C17.527,13.396,16.632,12.5,15.527,12.5z"/>
</g>
</svg>
