<?xml version="1.0" encoding="utf-8"?>
<!-- Generator: Adobe Illustrator 16.0.0, SVG Export Plug-In . SVG Version: 6.00 Build 0)  -->
<!DOCTYPE svg PUBLIC "-//W3C//DTD SVG 1.1//EN" "http://www.w3.org/Graphics/SVG/1.1/DTD/svg11.dtd">
<svg version="1.1" id="Filled_Icons" xmlns="http://www.w3.org/2000/svg" xmlns:xlink="http://www.w3.org/1999/xlink" x="0px"
	 y="0px" width="24px" height="24px" viewBox="0 0 24 24" enable-background="new 0 0 24 24" xml:space="preserve">
<path d="M12.137,0.5C5.86,0.5,2.695,5,2.695,8.752c0,2.272,0.86,4.295,2.705,5.047c0.303,0.124,0.574,0.004,0.661-0.33
	c0.062-0.231,0.206-0.816,0.271-1.061c0.088-0.331,0.055-0.446-0.19-0.736c-0.532-0.626-0.872-1.439-0.872-2.59
	c0-3.339,2.498-6.328,6.505-6.328c3.548,0,5.497,2.168,5.497,5.063c0,3.809-1.687,7.024-4.189,7.024
	c-1.382,0-2.416-1.142-2.085-2.545c0.397-1.675,1.167-3.479,1.167-4.688c0-1.081-0.58-1.983-1.782-1.983
	c-1.413,0-2.548,1.461-2.548,3.42c0,1.247,0.422,2.09,0.422,2.09s-1.445,6.126-1.699,7.199c-0.505,2.137-0.076,4.756-0.04,5.02
	c0.021,0.157,0.224,0.195,0.314,0.078c0.13-0.171,1.813-2.25,2.385-4.325c0.162-0.589,0.929-3.632,0.929-3.632
	c0.459,0.876,1.801,1.646,3.228,1.646c4.247,0,7.128-3.871,7.128-9.053C20.5,4.15,17.182,0.5,12.137,0.5z"/>
</svg>
