<?xml version="1.0" encoding="utf-8"?>
<!-- Generator: Adobe Illustrator 16.0.0, SVG Export Plug-In . SVG Version: 6.00 Build 0)  -->
<!DOCTYPE svg PUBLIC "-//W3C//DTD SVG 1.1//EN" "http://www.w3.org/Graphics/SVG/1.1/DTD/svg11.dtd">
<svg version="1.1" id="Filled_Icons" xmlns="http://www.w3.org/2000/svg" xmlns:xlink="http://www.w3.org/1999/xlink" x="0px"
	 y="0px" width="24px" height="24px" viewBox="0 0 24 24" enable-background="new 0 0 24 24" xml:space="preserve">
<g>
	<path d="M10.221,9.711L7.228,4.259C7.14,4.1,6.972,4,6.789,4H1.723c-0.177,0-0.34,0.093-0.43,0.245
		c-0.09,0.153-0.093,0.341-0.008,0.496l2.854,5.198l-3.84,6.301c-0.094,0.154-0.098,0.348-0.009,0.505
		C0.377,16.902,0.544,17,0.725,17h5.066c0.174,0,0.336-0.091,0.427-0.239l3.991-6.548C10.302,10.06,10.307,9.869,10.221,9.711z"/>
	<path d="M23.933,0.249C23.843,0.095,23.678,0,23.5,0h-5.374c-0.18,0-0.345,0.096-0.434,0.252L9.708,14.235
		c-0.088,0.154-0.088,0.342,0,0.496l5.145,9.017C14.942,23.904,15.107,24,15.287,24h5.374c0.178,0,0.343-0.095,0.432-0.249
		c0.09-0.154,0.09-0.344,0.002-0.499l-5.003-8.769l7.842-13.736C24.022,0.593,24.022,0.403,23.933,0.249z"/>
</g>
</svg>
