<svg xmlns="http://www.w3.org/2000/svg" viewBox="0 0 24 24"><path d="M12.14.5C5.86.5 2.7 5 2.7 8.75c0 2.27.86 4.3 2.7 5.05.3.12.57 0 .66-.33l.27-1.06c.1-.32.06-.44-.2-.73-.52-.62-.86-1.44-.86-2.6 0-3.33 2.5-6.32 6.5-6.32 3.55 0 5.5 2.17 5.5 5.07 0 3.8-1.7 7.02-4.2 7.02-1.37 0-2.4-1.14-2.07-2.54.4-1.68 1.16-3.48 1.16-4.7 0-1.07-.58-1.98-1.78-1.98-1.4 0-2.55 1.47-2.55 3.42 0 1.25.43 2.1.43 2.1l-1.7 7.2c-.5 2.13-.08 4.75-.04 5 .02.17.22.2.3.1.14-.18 1.82-2.26 2.4-4.33.16-.58.93-3.63.93-3.63.45.88 1.8 1.65 3.22 1.65 4.25 0 7.13-3.87 7.13-9.05C20.5 4.15 17.18.5 12.14.5z"/></svg>