<?xml version="1.0" encoding="utf-8"?>
<!-- Generator: Adobe Illustrator 16.0.0, SVG Export Plug-In . SVG Version: 6.00 Build 0)  -->
<!DOCTYPE svg PUBLIC "-//W3C//DTD SVG 1.1//EN" "http://www.w3.org/Graphics/SVG/1.1/DTD/svg11.dtd">
<svg version="1.1" id="Filled_Icons" xmlns="http://www.w3.org/2000/svg" xmlns:xlink="http://www.w3.org/1999/xlink" x="0px"
	 y="0px" width="24px" height="24px" viewBox="0 0 24 24" enable-background="new 0 0 24 24" xml:space="preserve">
<g>
	<path d="M12,0C5.383,0,0,5.383,0,12s5.383,12,12,12s12-5.383,12-12S18.617,0,12,0z M20,16c0,1.103-0.897,2-2,2H6
		c-1.103,0-2-0.897-2-2V8c0-1.103,0.897-2,2-2h12c1.103,0,2,0.897,2,2V16z"/>
	<path d="M17.887,8.184c-0.175-0.214-0.49-0.245-0.704-0.07L12,12.354L6.817,8.113C6.603,7.938,6.288,7.97,6.113,8.184
		S5.97,8.712,6.183,8.887l3.618,2.96l-3.566,2.229c-0.234,0.147-0.306,0.455-0.159,0.689C6.171,14.917,6.334,15,6.5,15
		c0.091,0,0.182-0.024,0.265-0.076l3.854-2.409l1.064,0.872C11.775,13.462,11.888,13.5,12,13.5s0.225-0.038,0.317-0.113l1.065-0.872
		l3.854,2.409C17.317,14.976,17.409,15,17.5,15c0.167,0,0.33-0.083,0.425-0.235c0.146-0.234,0.075-0.542-0.159-0.689l-3.566-2.229
		l3.618-2.96C18.03,8.712,18.062,8.397,17.887,8.184z"/>
</g>
</svg>
