<svg xmlns="http://www.w3.org/2000/svg" viewBox="0 0 24 24"><path d="M12 0C5.38 0 0 5.38 0 12s5.38 12 12 12 12-5.38 12-12S18.62 0 12 0zm8 16c0 1.1-.9 2-2 2H6c-1.1 0-2-.9-2-2V8c0-1.1.9-2 2-2h12c1.1 0 2 .9 2 2v8z"/><path d="M17.9 8.18c-.2-.2-.5-.24-.72-.07L12 12.38 6.82 8.1c-.22-.16-.53-.13-.7.08s-.15.53.06.7l3.62 2.97-3.57 2.23c-.23.14-.3.45-.15.7.1.14.25.22.42.22.1 0 .18-.02.27-.08l3.85-2.4 1.06.87c.1.04.2.1.32.1s.23-.06.32-.1l1.06-.9 3.86 2.4c.08.06.17.1.26.1.17 0 .33-.1.42-.25.15-.24.08-.55-.15-.7l-3.57-2.22 3.62-2.96c.2-.2.24-.5.07-.72z"/></svg>