<?xml version="1.0" encoding="utf-8"?>
<!-- Generator: Adobe Illustrator 16.0.0, SVG Export Plug-In . SVG Version: 6.00 Build 0)  -->
<!DOCTYPE svg PUBLIC "-//W3C//DTD SVG 1.1//EN" "http://www.w3.org/Graphics/SVG/1.1/DTD/svg11.dtd">
<svg version="1.1" id="Filled_Icons" xmlns="http://www.w3.org/2000/svg" xmlns:xlink="http://www.w3.org/1999/xlink" x="0px"
	 y="0px" width="24px" height="24px" viewBox="0 0 24 24" enable-background="new 0 0 24 24" xml:space="preserve">
<path d="M12,0C5.383,0,0,5.383,0,12s5.383,12,12,12s12-5.383,12-12S18.617,0,12,0z M15.595,11.5H13.5c0,3.013,0,7,0,7h-3
	c0,0,0-3.951,0-7h-2v-2h2V8.336c0-1.1,0.352-2.819,2.649-2.819L15.5,5.524V7.83c0,0-1.163,0-1.408,0
	c-0.244,0-0.592,0.124-0.592,0.647V9.5h2.339L15.595,11.5z"/>
</svg>
