<?xml version="1.0" encoding="utf-8"?>
<!-- Generator: Adobe Illustrator 16.0.0, SVG Export Plug-In . SVG Version: 6.00 Build 0)  -->
<!DOCTYPE svg PUBLIC "-//W3C//DTD SVG 1.1//EN" "http://www.w3.org/Graphics/SVG/1.1/DTD/svg11.dtd">
<svg version="1.1" id="Filled_Icons" xmlns="http://www.w3.org/2000/svg" xmlns:xlink="http://www.w3.org/1999/xlink" x="0px"
	 y="0px" width="24px" height="24px" viewBox="0 0 24 24" enable-background="new 0 0 24 24" xml:space="preserve">
<path d="M12,0C5.383,0,0,5.383,0,12s5.383,12,12,12s12-5.383,12-12S18.617,0,12,0z M9.5,16.5h-2v-7h2V16.5z M8.5,7.5
	c-0.553,0-1-0.448-1-1c0-0.552,0.447-1,1-1s1,0.448,1,1C9.5,7.052,9.053,7.5,8.5,7.5z M18.5,16.5h-3V13c0-0.277-0.225-0.5-0.5-0.5
	c-0.276,0-0.5,0.223-0.5,0.5v3.5h-3c0,0,0.031-6.478,0-7h3v0.835c0,0,0.457-0.753,1.707-0.753c1.55,0,2.293,1.12,2.293,3.296V16.5z"
	/>
</svg>
