<?xml version="1.0" encoding="utf-8"?>
<!-- Generator: Adobe Illustrator 16.0.0, SVG Export Plug-In . SVG Version: 6.00 Build 0)  -->
<!DOCTYPE svg PUBLIC "-//W3C//DTD SVG 1.1//EN" "http://www.w3.org/Graphics/SVG/1.1/DTD/svg11.dtd">
<svg version="1.1" id="Filled_Icons" xmlns="http://www.w3.org/2000/svg" xmlns:xlink="http://www.w3.org/1999/xlink" x="0px"
	 y="0px" width="24px" height="24px" viewBox="0 0 24 24" enable-background="new 0 0 24 24" xml:space="preserve">
<g>
	<path d="M12.646,8.608C12.626,7.938,12.344,7.3,11.854,6.81c-0.513-0.513-1.18-0.795-1.878-0.795c-0.627,0-1.207,0.235-1.634,0.662
		C7.895,7.124,7.66,7.732,7.681,8.389c0.021,0.669,0.303,1.308,0.794,1.797c0.966,0.968,2.616,1.031,3.511,0.134
		C12.433,9.873,12.667,9.265,12.646,8.608z"/>
	<path d="M10.164,14.226c-2.155,0-3.977,0.958-3.977,2.093c0,1.135,1.821,2.092,3.977,2.092s3.976-0.958,3.976-2.092
		C14.14,15.184,12.319,14.226,10.164,14.226z"/>
	<path d="M12,0C5.383,0,0,5.383,0,12s5.383,12,12,12s12-5.383,12-12S18.617,0,12,0z M10.164,19.411
		c-2.791,0-4.977-1.358-4.977-3.092c0-1.734,2.186-3.093,4.977-3.093c0.832,0,1.599,0.133,2.281,0.349
		c-0.58-0.392-1.257-0.858-1.311-1.692c-0.254,0.06-0.514,0.101-0.783,0.101c-0.965,0-1.883-0.387-2.584-1.089
		C7.096,10.224,6.71,9.345,6.682,8.42C6.651,7.484,6.99,6.614,7.635,5.969c0.631-0.631,1.509-0.932,2.397-0.918V5h3.937v1h-1.533
		c0.04,0.037,0.086,0.064,0.125,0.102c0.671,0.672,1.057,1.55,1.086,2.475c0.029,0.936-0.31,1.806-0.954,2.45
		c-0.153,0.154-0.321,0.292-0.499,0.41c-0.189,0.592,0.059,0.802,0.832,1.322c0.892,0.601,2.114,1.423,2.114,3.56
		C15.14,18.052,12.954,19.411,10.164,19.411z M20,10h-2v2h-1v-2h-2V9h2V7h1v2h2V10z"/>
</g>
</svg>
