<svg xmlns="http://www.w3.org/2000/svg" viewBox="0 0 24 24"><path d="M12 0C5.38 0 0 5.38 0 12s5.38 12 12 12 12-5.38 12-12S18.62 0 12 0zm1.4 15.56c-1 0-1.94-.53-2.25-1.14l-.65 2.52c-.4 1.45-1.57 2.9-1.66 3-.06.1-.2.07-.22-.04-.02-.2-.32-2 .03-3.5l1.18-5s-.3-.6-.3-1.46c0-1.36.8-2.37 1.78-2.37.85 0 1.25.62 1.25 1.37 0 .85-.53 2.1-.8 3.27-.24.98.48 1.78 1.44 1.78 1.73 0 2.9-2.24 2.9-4.9 0-2-1.35-3.5-3.82-3.5-2.8 0-4.53 2.07-4.53 4.4 0 .5.1.9.25 1.23l-1.5.82c-.36-.64-.54-1.43-.54-2.28 0-2.6 2.2-5.74 6.57-5.74 3.5 0 5.82 2.54 5.82 5.27 0 3.6-2 6.3-4.96 6.3z"/></svg>