<svg xmlns="http://www.w3.org/2000/svg" viewBox="0 0 24 24"><path d="M 12 0 C 5.38 0 0 5.38 0 12 C 0 18.62 5.38 24 12 24 C 18.62 24 24 18.62 24 12 C 24 5.38 18.62 0 12 0 z M 11.93 4.04 C 12.86 4.08 13.78 4.38 14.89 4.95 C 19.65 7.39 21.37 12.97 18.49 16.63 C 17.11 18.40 12 20.74 12 19.62 C 12 19.41 12.68 18.94 13.51 18.57 C 14.34 18.20 15.58 17.08 16.26 16.08 C 19.61 11.15 15.02 4.87 9.77 7.07 C 7.17 8.16 5.93 9.67 5.57 11.58 C 5.18 13.65 6.67 16.45 8.29 16.85 C 10.98 17.53 14.04 15.18 12.85 12.02 C 12.41 10.84 10.22 10.79 9.21 11.53 C 8.55 12.01 8.50 12.94 8.55 13.71 C 7.92 13.09 8.12 11.19 8.45 10.57 C 10.33 7.06 15.94 10.91 14.64 14.81 C 13.60 17.95 9.83 19.02 6.99 16.99 C 2.34 13.68 3.39 7.04 8.93 4.70 C 10.06 4.23 11.00 4.00 11.93 4.04 z"/></svg>
