<?xml version="1.0" encoding="utf-8"?>
<!-- Generator: Adobe Illustrator 16.0.0, SVG Export Plug-In . SVG Version: 6.00 Build 0)  -->
<!DOCTYPE svg PUBLIC "-//W3C//DTD SVG 1.1//EN" "http://www.w3.org/Graphics/SVG/1.1/DTD/svg11.dtd">
<svg version="1.1" id="Filled_Icons" xmlns="http://www.w3.org/2000/svg" xmlns:xlink="http://www.w3.org/1999/xlink" x="0px"
	 y="0px" width="24px" height="24px" viewBox="0 0 24 24" enable-background="new 0 0 24 24" xml:space="preserve">
<path d="M12,0C5.383,0,0,5.383,0,12s5.383,12,12,12s12-5.383,12-12S18.617,0,12,0z M15.492,17.616C11.401,19.544,9.5,17,9.5,14.031
	V9.5h-2V8.142c0.549-0.178,1.236-0.435,1.627-0.768c0.393-0.334,0.707-0.733,0.943-1.2c0.238-0.467,0.401-0.954,0.49-1.675H12.5v3h2
	v2h-2v3.719c0,2.468,1.484,2.692,2.992,1.701V17.616z"/>
</svg>
