<?xml version="1.0" encoding="utf-8"?>
<!-- Generator: Adobe Illustrator 16.0.0, SVG Export Plug-In . SVG Version: 6.00 Build 0)  -->
<!DOCTYPE svg PUBLIC "-//W3C//DTD SVG 1.1//EN" "http://www.w3.org/Graphics/SVG/1.1/DTD/svg11.dtd">
<svg version="1.1" id="Filled_Icons" xmlns="http://www.w3.org/2000/svg" xmlns:xlink="http://www.w3.org/1999/xlink" x="0px"
	 y="0px" width="24px" height="24px" viewBox="0 0 24 24" enable-background="new 0 0 24 24" xml:space="preserve">
<path d="M12,0C5.383,0,0,5.383,0,12s5.383,12,12,12s12-5.383,12-12S18.617,0,12,0z M17.262,9.385
	c0.006,0.113,0.008,0.226,0.008,0.34c0,3.478-2.647,7.489-7.488,7.489c-1.486,0-2.87-0.437-4.035-1.184
	c1.374,0.161,2.771-0.207,3.896-1.089c-1.151-0.022-2.123-0.783-2.458-1.829c0.396,0.075,0.803,0.061,1.188-0.046
	c-1.204-0.24-2.111-1.305-2.111-2.579c0-0.011,0-0.023,0-0.035c0.355,0.197,0.762,0.315,1.192,0.33
	c-0.706-0.473-1.171-1.277-1.171-2.19c0-0.482,0.13-0.934,0.356-1.324c1.298,1.593,3.237,2.642,5.425,2.75
	c-0.045-0.191-0.068-0.394-0.068-0.599c0-1.454,1.179-2.632,2.633-2.632c0.757,0,1.44,0.319,1.921,0.832
	c0.6-0.119,1.95-0.266,1.95-0.266C18.147,7.882,17.776,9.013,17.262,9.385z"/>
</svg>
