<svg xmlns="http://www.w3.org/2000/svg" width="24" height="24" viewBox="0 0 24 24"><g><path stroke="none" fill="#000" d="M12,0C5.4,0,0,5.4,0,12s5.4,12,12,12s12-5.4,12-12S18.6,0,12,0z"/><path d="M17.7,6.2c-1.5-1.5-3.5-2.4-5.7-2.4c-4.5,0-8.1,3.6-8.1,8.1c0,1.4,0.3,2.8,1.1,4l-1.2,4.2L8.2,19 c1.2,0.6,2.5,1,3.9,1l0,0l0,0c4.5,0,8.1-3.6,8.1-8.1C20.1,9.8,19.3,7.7,17.7,6.2z M12,18.7L12,18.7c-1.2,0-2.4-0.3-3.4-1l-0.3-0.1 l-2.5,0.7l0.7-2.4l-0.1-0.3c-0.7-1.1-1-2.3-1-3.6c0-3.7,3-6.7,6.7-6.7c1.8,0,3.5,0.7,4.8,2s2,3,2,4.8C18.8,15.7,15.7,18.7,12,18.7 z M15.7,13.6c-0.2-0.1-1.2-0.6-1.4-0.7c-0.2-0.1-0.3-0.1-0.5,0.1c-0.1,0.2-0.5,0.7-0.6,0.8c-0.1,0.1-0.2,0.1-0.4,0.1 c-0.2-0.1-0.9-0.3-1.6-1c-0.6-0.5-1-1.2-1.2-1.4c-0.1-0.2,0-0.3,0.1-0.4c0.1-0.1,0.2-0.2,0.3-0.3c0.1-0.1,0.1-0.2,0.2-0.3 c0.1-0.1,0-0.3,0-0.3C10.5,10,10.1,8.9,10,8.5C9.9,8.1,9.7,8.2,9.5,8.2s-0.3,0-0.4,0C9,8.2,8.8,8.3,8.6,8.5 c-0.2,0.2-0.7,0.7-0.7,1.7s0.7,2,0.8,2.1c0.1,0.1,1.4,2.2,3.5,3.1c0.5,0.2,0.9,0.3,1.2,0.4c0.5,0.1,1,0.1,1.3,0.1 c0.4-0.1,1.2-0.5,1.4-1s0.1-0.9,0.1-1C16,13.8,15.9,13.7,15.7,13.6z" fill="#FFF"/></g></svg>