<svg xmlns="http://www.w3.org/2000/svg" viewBox="0 0 24 24"><path d="M12.65 8.6c-.02-.66-.3-1.3-.8-1.8S10.67 6 9.98 6c-.63 0-1.2.25-1.64.68-.45.44-.68 1.05-.66 1.7.02.68.3 1.32.8 1.8.96.97 2.6 1.04 3.5.14.45-.45.7-1.05.67-1.7zm-2.5 5.63c-2.14 0-3.96.95-3.96 2.1 0 1.12 1.8 2.08 3.94 2.08s3.98-.93 3.98-2.06c0-1.14-1.82-2.1-3.98-2.1z"/><path d="M12 0C5.38 0 0 5.38 0 12s5.38 12 12 12 12-5.38 12-12S18.62 0 12 0zm-1.84 19.4c-2.8 0-4.97-1.35-4.97-3.08s2.15-3.1 4.94-3.1c.84 0 1.6.14 2.28.36-.57-.4-1.25-.86-1.3-1.7-.26.06-.52.1-.8.1-.95 0-1.87-.38-2.57-1.08-.67-.68-1.06-1.55-1.1-2.48-.02-.94.32-1.8.96-2.45.65-.63 1.5-.93 2.4-.92V5h3.95v1h-1.53l.12.1c.67.67 1.06 1.55 1.1 2.48.02.93-.32 1.8-.97 2.45-.16.15-.33.3-.5.4-.2.6.05.8.83 1.33.9.6 2.1 1.42 2.1 3.56 0 1.73-2.17 3.1-4.96 3.1zM20 10h-2v2h-1v-2h-2V9h2V7h1v2h2v1z"/></svg>