<?xml version="1.0" encoding="utf-8"?>
<!-- Generator: Adobe Illustrator 16.0.0, SVG Export Plug-In . SVG Version: 6.00 Build 0)  -->
<!DOCTYPE svg PUBLIC "-//W3C//DTD SVG 1.1//EN" "http://www.w3.org/Graphics/SVG/1.1/DTD/svg11.dtd">
<svg version="1.1" id="Filled_Icons" xmlns="http://www.w3.org/2000/svg" xmlns:xlink="http://www.w3.org/1999/xlink" x="0px"
	 y="0px" width="24px" height="24px" viewBox="0 0 24 24" enable-background="new 0 0 24 24" xml:space="preserve">
<path d="M12,0C5.383,0,0,5.383,0,12s5.383,12,12,12s12-5.383,12-12S18.617,0,12,0z M12.5,14.5H14c0.828,0,1.5,0.671,1.5,1.5
	c0,0.829-0.672,1.5-1.5,1.5h-2.5c-2.209,0-4-1.791-4-4V7c0-0.829,0.672-1.5,1.5-1.5s1.5,0.671,1.5,1.5v1.5H14
	c0.828,0,1.5,0.671,1.5,1.5c0,0.829-0.672,1.5-1.5,1.5h-3.5v1C10.5,13.604,11.395,14.5,12.5,14.5z"/>
</svg>
