<?xml version="1.0" encoding="utf-8"?>
<!-- Generator: Adobe Illustrator 16.0.0, SVG Export Plug-In . SVG Version: 6.00 Build 0)  -->
<!DOCTYPE svg PUBLIC "-//W3C//DTD SVG 1.1//EN" "http://www.w3.org/Graphics/SVG/1.1/DTD/svg11.dtd">
<svg version="1.1" id="Filled_Icons" xmlns="http://www.w3.org/2000/svg" xmlns:xlink="http://www.w3.org/1999/xlink" x="0px"
	 y="0px" width="24px" height="24px" viewBox="0 0 24 24" enable-background="new 0 0 24 24" xml:space="preserve">
<g>
	<circle cx="9.391" cy="13.392" r="0.978"/>
	<path d="M14.057,15.814c-1.141,0.659-2.987,0.655-4.122-0.004c-0.238-0.138-0.545-0.058-0.684,0.182
		c-0.139,0.239-0.058,0.545,0.182,0.685c0.72,0.417,1.631,0.646,2.567,0.646c0.931,0,1.838-0.228,2.557-0.642
		c0.239-0.139,0.321-0.444,0.184-0.684C14.602,15.758,14.295,15.677,14.057,15.814z"/>
	<path d="M5,12.086c0,0.411,0.229,0.78,0.568,0.978c0.27-0.662,0.735-1.264,1.353-1.774c-0.209-0.207-0.489-0.334-0.79-0.334
		C5.507,10.956,5,11.463,5,12.086z"/>
	<path d="M12,0C5.383,0,0,5.383,0,12s5.383,12,12,12s12-5.383,12-12S18.617,0,12,0z M18.673,14.055
		c0.01,0.104,0.022,0.208,0.022,0.314c0,2.613-3.004,4.739-6.695,4.739s-6.695-2.126-6.695-4.739c0-0.106,0.013-0.21,0.022-0.314
		C4.538,13.735,4,12.975,4,12.086c0-1.175,0.956-2.131,2.131-2.131c0.629,0,1.217,0.288,1.617,0.756
		c1.04-0.607,2.345-0.991,3.769-1.063c0.058-0.803,0.309-2.33,1.389-2.951c0.633-0.365,1.417-0.322,2.322,0.086
		c0.302-0.811,1.076-1.392,1.989-1.392c1.175,0,2.131,0.957,2.131,2.13c0,1.175-0.956,2.131-2.131,2.131
		c-1.064,0-1.941-0.789-2.097-1.812c-0.734-0.402-1.315-0.506-1.716-0.276c-0.601,0.345-0.818,1.394-0.881,2.086
		c1.408,0.078,2.698,0.46,3.729,1.062c0.399-0.468,0.987-0.756,1.617-0.756c1.175,0,2.131,0.956,2.131,2.131
		C20,12.975,19.462,13.735,18.673,14.055z"/>
	<circle cx="14.609" cy="13.391" r="0.978"/>
	<path d="M17.869,10.956c-0.301,0-0.582,0.128-0.79,0.334c0.617,0.51,1.083,1.112,1.353,1.774C18.771,12.867,19,12.498,19,12.086
		C19,11.463,18.493,10.956,17.869,10.956z"/>
</g>
</svg>
