<?xml version="1.0" encoding="utf-8"?>
<!-- Generator: Adobe Illustrator 16.0.0, SVG Export Plug-In . SVG Version: 6.00 Build 0)  -->
<!DOCTYPE svg PUBLIC "-//W3C//DTD SVG 1.1//EN" "http://www.w3.org/Graphics/SVG/1.1/DTD/svg11.dtd">
<svg version="1.1" id="Filled_Icons" xmlns="http://www.w3.org/2000/svg" xmlns:xlink="http://www.w3.org/1999/xlink" x="0px"
	 y="0px" width="24px" height="24px" viewBox="0 0 24 24" enable-background="new 0 0 24 24" xml:space="preserve">
<path d="M12,0C5.383,0,0,5.383,0,12s5.383,12,12,12s12-5.383,12-12S18.617,0,12,0z M13.391,15.563c-0.992,0-1.926-0.535-2.244-1.145
	c0,0-0.535,2.117-0.646,2.526c-0.398,1.443-1.569,2.889-1.66,3.007c-0.063,0.084-0.203,0.058-0.218-0.053
	c-0.025-0.184-0.323-2.005,0.027-3.492c0.176-0.746,1.183-5.008,1.183-5.008s-0.294-0.588-0.294-1.454
	c0-1.362,0.79-2.378,1.772-2.378c0.836,0,1.24,0.626,1.24,1.378c0,0.841-0.535,2.098-0.813,3.261
	c-0.23,0.977,0.49,1.772,1.451,1.772c1.741,0,2.914-2.238,2.914-4.888c0-2.013-1.356-3.521-3.824-3.521
	c-2.787,0-4.525,2.08-4.525,4.4c0,0.498,0.092,0.904,0.249,1.246L6.49,12.02c-0.355-0.637-0.527-1.434-0.527-2.279
	C5.963,7.13,8.165,4,12.531,4c3.51,0,5.818,2.539,5.818,5.266C18.35,12.869,16.346,15.563,13.391,15.563z"/>
</svg>
