<svg xmlns="http://www.w3.org/2000/svg" viewBox="0 0 24 24"><circle xmlns="http://www.w3.org/2000/svg" cx="12" cy="12" r="11.5"/><path stroke-width="1px" d="M17.6 6.2c-1.5-1.5-3.4-2.3-5.5-2.3-4.3 0-7.8 3.5-7.8 7.8 0 1.4.4 2.7 1 3.9l-1.1 4 4.1-1.1c1.1.6 2.4.9 3.7.9 4.3 0 7.8-3.5 7.8-7.8.1-2-.7-3.9-2.2-5.4zm-5.5 11.9c-1.2 0-2.3-.3-3.3-.9l-.2-.1-2.4.6.7-2.4-.2-.2c-.6-1-1-2.2-1-3.4 0-3.6 2.9-6.5 6.5-6.5 1.7 0 3.3.7 4.6 1.9 1.2 1.2 1.9 2.8 1.9 4.6-.1 3.5-3 6.4-6.6 6.4zm3.5-4.8c-.2-.1-1.1-.6-1.3-.6-.2-.1-.3-.1-.4.1-.1.2-.5.6-.6.8-.1.1-.2.1-.4 0s-.8-.3-1.6-1c-.6-.5-1-1.2-1.1-1.3-.1-.2 0-.3.1-.4l.3-.3s.1-.2.2-.3c.1-.1 0-.2 0-.3s-.4-1.1-.6-1.4c-.2-.4-.3-.3-.4-.3h-.4s-.3 0-.5.2-.7.7-.7 1.6c0 1 .7 1.9.8 2s1.4 2.1 3.3 2.9c.5.2.8.3 1.1.4.5.1.9.1 1.2.1.4-.1 1.1-.5 1.3-.9.2-.5.2-.8.1-.9 0-.2-.2-.3-.4-.4z"/></svg>