<svg xmlns="http://www.w3.org/2000/svg" viewBox="0 0 24 24"><circle cx="12" cy="12" r="11.5"/><ellipse cx="12" cy="14.37" rx="6.2" ry="4.24"/><path d="M14.3 16.25c-.62.36-1.42.57-2.3.57-.88 0-1.7-.2-2.32-.58"/><circle cx="14.61" cy="13.39" r=".98"/><circle cx="9.39" cy="13.39" r=".98"/><path d="M16.4 11.38c.26-.55.82-.92 1.47-.92.9 0 1.63.73 1.63 1.63 0 .8-.6 1.47-1.38 1.6"/><circle cx="17.22" cy="7.52" r="1.63"/><path d="M7.6 11.38c-.26-.54-.82-.92-1.47-.92-.9 0-1.63.73-1.63 1.63 0 .8.6 1.47 1.38 1.6M12 10.12s-.08-4.82 3.6-2.6"/></svg>