<svg xmlns="http://www.w3.org/2000/svg" viewBox="0 0 24 24"><circle cx="12" cy="12" r="11.5"/><path d="M8 11.2c-.15-.32-.25-.72-.25-1.22 0-2.32 1.74-4.4 4.53-4.4 2.47 0 3.82 1.5 3.82 3.52 0 2.64-1.17 4.88-2.9 4.88-.97 0-1.7-.8-1.46-1.77.28-1.14.8-2.4.8-3.23 0-.76-.4-1.38-1.23-1.38-.95 0-1.74 1-1.74 2.37 0 .86.3 1.45.3 1.45l-1.2 5c-.34 1.5-.04 3.33-.02 3.5.02.1.16.15.22.06.1-.12 1.26-1.56 1.66-3l.66-2.53c.32.6 1.25 1.14 2.24 1.14 2.95 0 4.95-2.7 4.95-6.3 0-2.73-2.3-5.27-5.82-5.27-4.36 0-6.57 3.14-6.57 5.75 0 .85.18 1.64.53 2.28l1.5-.8z"/></svg>