<svg xmlns="http://www.w3.org/2000/svg" width="24" height="24" viewBox="0 0 24 24"><g stroke="#000" stroke-linejoin="round" stroke-miterlimit="10" fill="none"><circle stroke-linecap="round" cx="12" cy="12" r="11.5"/><ellipse cx="12" cy="14.369" rx="6.195" ry="4.239"/><path stroke-linecap="round" d="M14.307 16.248c-.623.359-1.428.576-2.307.576-.883 0-1.691-.217-2.316-.58"/><circle cx="14.609" cy="13.392" r=".979"/><circle cx="9.391" cy="13.392" r=".978"/><path stroke-linecap="round" d="M16.398 11.385c.262-.55.822-.929 1.471-.929.9 0 1.631.73 1.631 1.631 0 .816-.6 1.492-1.383 1.612"/><circle stroke-linecap="round" cx="17.218" cy="7.521" r="1.63"/><path stroke-linecap="round" d="M7.603 11.385c-.263-.549-.823-.929-1.472-.929-.9 0-1.631.73-1.631 1.631 0 .816.6 1.492 1.383 1.612M12 10.13s-.082-4.824 3.588-2.609"/></g></svg>