<svg xmlns="http://www.w3.org/2000/svg" width="24" height="24" viewBox="0 0 24 24"><g stroke="#000" stroke-linejoin="round" stroke-miterlimit="10" fill="none"><circle stroke-linecap="round" cx="12" cy="12" r="11.5"/><path d="M8.003 11.215c-.157-.342-.249-.748-.249-1.246 0-2.32 1.738-4.4 4.525-4.4 2.468 0 3.824 1.509 3.824 3.521 0 2.649-1.173 4.888-2.914 4.888-.961 0-1.682-.796-1.451-1.772.277-1.163.813-2.42.813-3.261 0-.752-.404-1.378-1.24-1.378-.982 0-1.772 1.016-1.772 2.378 0 .866.294 1.454.294 1.454l-1.183 5.008c-.351 1.487-.053 3.309-.027 3.492.015.11.154.137.218.053.091-.118 1.262-1.563 1.66-3.007.111-.409.646-2.526.646-2.526.318.609 1.252 1.145 2.244 1.145 2.955 0 4.959-2.693 4.959-6.297 0-2.728-2.309-5.267-5.819-5.267-4.366 0-6.568 3.13-6.568 5.74 0 .846.172 1.643.527 2.279l1.513-.804z"/></g></svg>