<svg xmlns="http://www.w3.org/2000/svg" width="24" height="24" viewBox="0 0 24 24"><g stroke="#000" stroke-linejoin="round" stroke-miterlimit="10" fill="none"><path d="M18.5 7.354s-1.351.146-1.95.266c-.48-.513-1.164-.832-1.921-.832-1.454 0-2.633 1.179-2.633 2.632 0 .205.023.408.068.599-2.187-.108-4.126-1.157-5.424-2.75-.227.39-.357.841-.357 1.324 0 .914.465 1.718 1.171 2.19-.431-.014-.837-.132-1.192-.33v.035c0 1.274.907 2.338 2.111 2.579-.386.106-.792.121-1.188.046.335 1.045 1.307 1.806 2.458 1.829-1.125.882-2.522 1.25-3.896 1.089 1.165.747 2.549 1.184 4.035 1.184 4.841 0 7.488-4.012 7.488-7.489l-.008-.34c.514-.373.885-1.504 1.238-2.032z"/><circle stroke-linecap="round" cx="12" cy="12" r="11.5"/></g></svg>