<svg xmlns="http://www.w3.org/2000/svg" width="24" height="24" viewBox="0 0 24 24"><g xmlns="http://www.w3.org/2000/svg" stroke="#000" stroke-linejoin="round" stroke-miterlimit="10" fill="none"><circle class="st0" cx="12" cy="12" r="11.5"/></g><g><path d="M17.6,6.2c-1.5-1.5-3.4-2.3-5.5-2.3c-4.3,0-7.8,3.5-7.8,7.8c0,1.4,0.4,2.7,1,3.9l-1.1,4l4.1-1.1c1.1,0.6,2.4,0.9,3.7,0.9l0,0l0,0c4.3,0,7.8-3.5,7.8-7.8C19.9,9.6,19.1,7.7,17.6,6.2z M12.1,18.1L12.1,18.1c-1.2,0-2.3-0.3-3.3-0.9l-0.2-0.1l-2.4,0.6l0.7-2.4l-0.2-0.2c-0.6-1-1-2.2-1-3.4c0-3.6,2.9-6.5,6.5-6.5c1.7,0,3.3,0.7,4.6,1.9c1.2,1.2,1.9,2.8,1.9,4.6C18.6,15.2,15.7,18.1,12.1,18.1z M15.6,13.3c-0.2-0.1-1.1-0.6-1.3-0.6c-0.2-0.1-0.3-0.1-0.4,0.1c-0.1,0.2-0.5,0.6-0.6,0.8c-0.1,0.1-0.2,0.1-0.4,0s-0.8-0.3-1.6-1c-0.6-0.5-1-1.2-1.1-1.3c-0.1-0.2,0-0.3,0.1-0.4c0.1-0.1,0.2-0.2,0.3-0.3s0.1-0.2,0.2-0.3c0.1-0.1,0-0.2,0-0.3s-0.4-1.1-0.6-1.4C10,8.2,9.9,8.3,9.8,8.3c-0.1,0-0.2,0-0.4,0s-0.3,0-0.5,0.2s-0.7,0.7-0.7,1.6c0,1,0.7,1.9,0.8,2s1.4,2.1,3.3,2.9c0.5,0.2,0.8,0.3,1.1,0.4c0.5,0.1,0.9,0.1,1.2,0.1c0.4-0.1,1.1-0.5,1.3-0.9c0.2-0.5,0.2-0.8,0.1-0.9C16,13.5,15.8,13.4,15.6,13.3z"/></g></svg>