<?xml version="1.0" encoding="utf-8"?>
<!-- Generated by IcoMoon.io -->
<!DOCTYPE svg PUBLIC "-//W3C//DTD SVG 1.1//EN" "http://www.w3.org/Graphics/SVG/1.1/DTD/svg11.dtd">
<svg version="1.1" xmlns="http://www.w3.org/2000/svg" xmlns:xlink="http://www.w3.org/1999/xlink" width="1em" height="1em" viewBox="0 0 32 32">
<path d="M26.668 0h-21.334c-2.934 0-5.334 2.4-5.334 5.334v21.332c0 2.936 2.4 5.334 5.334 5.334h21.334c2.933 0 5.332-2.398 5.332-5.334v-21.332c-0-2.933-2.399-5.334-5.332-5.334zM22.866 25.771c-0.942 0.443-1.798 0.756-2.563 0.936-0.765 0.178-1.593 0.267-2.481 0.267-1.010 0-1.605-0.127-2.381-0.381-0.775-0.256-1.438-0.621-1.984-1.090-0.549-0.473-0.928-0.975-1.14-1.506s-0.317-1.303-0.317-2.313v-7.744h-3v-3.127c0.867-0.281 1.873-0.685 2.49-1.211 0.62-0.527 1.116-1.158 1.49-1.896 0.375-0.736 0.633-1.676 0.774-2.815h3.141v5.108h5.105v3.941h-5.106v5.662c0 1.281-0.017 2.020 0.119 2.383 0.135 0.361 0.473 0.736 0.841 0.953 0.489 0.293 1.047 0.439 1.676 0.439 1.118 0 2.231-0.363 3.336-1.090v3.482z"></path>
</svg>
