<?xml version="1.0" encoding="utf-8"?>
<!-- Generated by IcoMoon.io -->
<!DOCTYPE svg PUBLIC "-//W3C//DTD SVG 1.1//EN" "http://www.w3.org/Graphics/SVG/1.1/DTD/svg11.dtd">
<svg version="1.1" xmlns="http://www.w3.org/2000/svg" xmlns:xlink="http://www.w3.org/1999/xlink" width="32" height="32" viewBox="0 0 32 32">
<path fill="#444444" d="M16.211 17.022l3.688 9.842c0.024 0.058 0.054 0.111 0.086 0.161-1.247 0.428-2.588 0.663-3.985 0.663-1.178 0-2.315-0.168-3.39-0.476l3.601-10.189zM28 16c0 4.312-2.399 8.076-5.967 10.102l3.665-10.321c0.685-1.667 0.913-3.001 0.913-4.186 0-0.43-0.029-0.83-0.081-1.202 0.937 1.664 1.47 3.575 1.47 5.607zM4 16c0-1.694 0.373-3.303 1.039-4.756l5.724 15.274c-4.003-1.894-6.763-5.892-6.763-10.518zM5.974 9.58c2.146-3.173 5.834-5.268 10.026-5.268 3.124 0 5.968 1.163 8.103 3.069-0.052-0.003-0.102-0.009-0.155-0.009-1.179 0-2.015 1-2.015 2.074 0 0.963 0.571 1.778 1.179 2.741 0.456 0.778 0.989 1.778 0.989 3.223 0 1-0.395 2.161-0.913 3.778l-1.197 3.895-4.337-12.563c0.722-0.037 1.373-0.111 1.373-0.111 0.647-0.075 0.571-1-0.076-0.963 0 0-1.944 0.149-3.198 0.149-1.179 0-3.16-0.149-3.16-0.149-0.647-0.037-0.723 0.926-0.076 0.963 0 0 0.612 0.074 1.259 0.111l1.869 4.989-2.626 7.671-4.37-12.66c0.723-0.037 1.373-0.111 1.373-0.111 0.646-0.075 0.57-1-0.077-0.963 0 0-1.943 0.149-3.198 0.149-0.225 0-0.491-0.005-0.772-0.014zM26.625 0h-21.25c-2.956 0-5.375 2.419-5.375 5.375v21.25c0 2.956 2.419 5.375 5.375 5.375h21.25c2.956 0 5.375-2.419 5.375-5.375v-21.25c0-2.956-2.419-5.375-5.375-5.375zM30 16c0 7.732-6.268 14-14 14s-14-6.268-14-14 6.268-14 14-14 14 6.268 14 14z"></path>
</svg>
