<?xml version="1.0" encoding="utf-8"?>
<!-- Generated by IcoMoon.io -->
<!DOCTYPE svg PUBLIC "-//W3C//DTD SVG 1.1//EN" "http://www.w3.org/Graphics/SVG/1.1/DTD/svg11.dtd">
<svg version="1.1" xmlns="http://www.w3.org/2000/svg" xmlns:xlink="http://www.w3.org/1999/xlink" width="512" height="512" viewBox="0 0 512 512"><g id="icomoon-ignore">
</g>
<path d="M426.671 0h-341.328c-46.937 0-85.343 38.405-85.343 85.345v341.311c0 46.969 38.406 85.344 85.343 85.344h341.328c46.938 0 85.329-38.375 85.329-85.345v-341.31c0-46.94-38.391-85.345-85.329-85.345zM155.889 333.394h-55.632c-3.351 0-5.854-1.504-7.271-3.792-1.467-2.379-1.542-5.464 0-8.534l59.11-104.313c0.063-0.114 0.063-0.19 0-0.316l-37.615-65.116c-1.556-3.098-1.783-6.157-0.316-8.534 1.417-2.301 4.235-3.477 7.586-3.477h55.632c8.535 0 12.72 5.499 15.489 10.431 0 0 38.020 66.33 38.249 66.696-2.252 3.97-60.059 106.21-60.059 106.21-2.844 5.131-6.852 10.745-15.173 10.745zM418.956 75.269l-123.176 217.79c-0.075 0.115-0.075 0.255 0 0.367l78.431 143.295c1.556 3.084 1.593 6.221 0.113 8.597-1.415 2.288-4.033 3.552-7.383 3.552h-55.57c-8.522 0-12.783-5.663-15.54-10.596 0 0-78.848-144.646-79.050-145.023 3.944-6.98 123.797-219.523 123.797-219.523 2.984-5.362 6.587-10.596 14.894-10.596h56.203c3.351 0 5.981 1.265 7.396 3.553 1.466 2.376 1.428 5.511-0.115 8.584z"></path>
</svg>
