<svg xmlns="http://www.w3.org/2000/svg" width="24" height="24" viewBox="0 0 24 24"><g stroke="#000" stroke-linejoin="round" stroke-miterlimit="10" fill="none"><path d="M11.366 12.928c-.729-.516-1.393-1.273-1.404-1.505 0-.425.038-.627.988-1.368 1.229-.962 1.906-2.228 1.906-3.564 0-1.212-.37-2.289-1.001-3.044h.488c.102 0 .2-.033.282-.091l1.364-.989c.169-.121.24-.338.176-.536-.063-.196-.247-.331-.456-.331h-6.101c-.667 0-1.345.118-2.011.347-2.225.766-3.778 2.66-3.778 4.605 0 2.755 2.134 4.845 4.987 4.91-.056.22-.084.434-.084.645 0 .425.108.827.33 1.216h-.079c-2.72 0-5.175 1.334-6.107 3.32-.243.517-.366 1.039-.366 1.555 0 .501.129.984.382 1.438.585 1.046 1.843 1.861 3.544 2.289.877.223 1.82.335 2.8.335.88 0 1.718-.114 2.494-.338 2.419-.702 3.981-2.482 3.981-4.538 0-1.972-.633-3.152-2.335-4.356zm-7.706 4.515c0-1.435 1.823-2.693 3.899-2.693h.057c.451.005.892.072 1.309.2l.412.282c.962.656 1.597 1.088 1.774 1.783.041.175.063.35.063.519 0 1.787-1.333 2.693-3.961 2.693-1.992-.002-3.553-1.225-3.553-2.784zm1.891-13.553c.324-.371.75-.566 1.227-.566h.055c1.349.041 2.639 1.543 2.876 3.349.133 1.013-.092 1.964-.601 2.544-.326.372-.745.566-1.242.566h-.022000000000000002c-1.321-.04-2.639-1.6-2.875-3.405-.133-1.008.08-1.916.582-2.488zM23.5 9.5h-3v-3h-2v3h-3v2h3v3h2v-3h3z"/></g></svg>