<svg xmlns="http://www.w3.org/2000/svg" viewBox="0 0 24 24"><path d="m 11.99,22.96 c 0,-0.29 0.97,-0.97 2.17,-1.50 1.19,-0.52 2.97,-2.13 3.94,-3.57 C 22.93,10.80 16.33,1.79 8.80,4.94 5.06,6.50 3.28,8.67 2.76,11.43 2.21,14.38 4.35,18.41 6.67,18.99 10.54,19.96 14.92,16.58 13.23,12.05 12.59,10.36 9.44,10.28 7.99,11.35 7.04,12.04 6.98,13.38 7.05,14.48 6.14,13.59 6.43,10.86 6.91,9.97 9.60,4.94 17.65,10.46 15.79,16.06 14.29,20.56 8.89,22.09 4.80,19.18 -1.86,14.43 -0.35,4.90 7.59,1.55 10.85,0.18 12.97,0.27 16.15,1.90 c 6.83,3.50 9.30,11.52 5.17,16.77 -1.98,2.52 -9.32,5.89 -9.32,4.28 z"/> </svg>
