<svg xmlns="http://www.w3.org/2000/svg" width="24" height="24" viewBox="0 0 24 24"><path stroke="#000" stroke-linejoin="round" stroke-miterlimit="10" d="M12.137.5c-6.277 0-9.442 4.5-9.442 8.252 0 2.272.86 4.295 2.705 5.047.303.124.574.004.661-.33l.271-1.061c.088-.331.055-.446-.19-.736-.532-.626-.872-1.439-.872-2.59 0-3.339 2.498-6.328 6.505-6.328 3.548 0 5.497 2.168 5.497 5.063 0 3.809-1.687 7.024-4.189 7.024-1.382 0-2.416-1.142-2.085-2.545.397-1.675 1.167-3.479 1.167-4.688 0-1.081-.58-1.983-1.782-1.983-1.413 0-2.548 1.461-2.548 3.42 0 1.247.422 2.09.422 2.09s-1.445 6.126-1.699 7.199c-.505 2.137-.076 4.756-.04 5.02.021.157.224.195.314.078.13-.171 1.813-2.25 2.385-4.325.162-.589.929-3.632.929-3.632.459.876 1.801 1.646 3.228 1.646 4.247 0 7.128-3.871 7.128-9.053-.002-3.918-3.32-7.568-8.365-7.568z" fill="none"/></svg>