<svg xmlns="http://www.w3.org/2000/svg" viewBox="0 0 24 24"><path d="M23.4 4.83c-.8.37-1.5.38-2.22.02.94-.56.98-.96 1.32-2.02-.88.52-1.85.9-2.9 1.1-.8-.88-2-1.43-3.3-1.43-2.5 0-4.55 2.04-4.55 4.54 0 .36.04.7.12 1.04-3.78-.2-7.12-2-9.37-4.75-.4.67-.6 1.45-.6 2.3 0 1.56.8 2.95 2 3.77-.73-.03-1.43-.23-2.05-.57v.06c0 2.2 1.57 4.03 3.65 4.44-.67.18-1.37.2-2.05.08.57 1.8 2.25 3.12 4.24 3.16-1.95 1.52-4.36 2.16-6.74 1.88 2 1.3 4.4 2.04 6.97 2.04 8.36 0 12.93-6.92 12.93-12.93l-.02-.6c.9-.63 1.96-1.22 2.57-2.14z"/></svg>