<svg xmlns="http://www.w3.org/2000/svg" width="24" height="24" viewBox="0 0 24 24"><g stroke="#000" stroke-linejoin="round" stroke-miterlimit="10" fill="none"><ellipse cx="12" cy="15" rx="9.5" ry="6.5"/><path stroke-linecap="round" d="M15.537 17.881c-.955.55-2.189.882-3.537.882-1.354 0-2.594-.335-3.553-.891"/><circle cx="16" cy="13.5" r="1.5"/><circle cx="8" cy="13.5" r="1.5"/><path stroke-linecap="round" d="M18.744 10.422c.402-.84 1.261-1.422 2.256-1.422 1.381 0 2.5 1.119 2.5 2.5 0 1.252-.92 2.288-2.119 2.471"/><circle stroke-linecap="round" cx="20" cy="4.5" r="2.5"/><path stroke-linecap="round" d="M5.257 10.423c-.403-.841-1.262-1.423-2.257-1.423-1.381 0-2.5 1.119-2.5 2.5 0 1.252.918 2.288 2.119 2.471M12 8.5s-.125-7.396 5.5-4"/></g></svg>